<svg width="232" height="65" viewBox="0 0 232 65" fill="none" xmlns="http://www.w3.org/2000/svg">
<g clip-path="url(#clip0_122_6)">
<path d="M30.2202 2.06L24.3702 23H19.4202L15.4902 8.09L11.3802 23L6.46016 23.03L0.820152 2.06H5.32016L9.01016 18.32L13.2702 2.06H17.9502L21.9702 18.23L25.6902 2.06H30.2202ZM48.4126 14.33C48.4126 14.93 48.3726 15.47 48.2926 15.95H36.1426C36.2426 17.15 36.6626 18.09 37.4026 18.77C38.1426 19.45 39.0526 19.79 40.1326 19.79C41.6926 19.79 42.8026 19.12 43.4626 17.78H47.9926C47.5126 19.38 46.5926 20.7 45.2326 21.74C43.8726 22.76 42.2026 23.27 40.2226 23.27C38.6226 23.27 37.1826 22.92 35.9026 22.22C34.6426 21.5 33.6526 20.49 32.9326 19.19C32.2326 17.89 31.8826 16.39 31.8826 14.69C31.8826 12.97 32.2326 11.46 32.9326 10.16C33.6326 8.86 34.6126 7.86 35.8726 7.16C37.1326 6.46 38.5826 6.11 40.2226 6.11C41.8026 6.11 43.2126 6.45 44.4526 7.13C45.7126 7.81 46.6826 8.78 47.3626 10.04C48.0626 11.28 48.4126 12.71 48.4126 14.33ZM44.0626 13.13C44.0426 12.05 43.6526 11.19 42.8926 10.55C42.1326 9.89 41.2026 9.56 40.1026 9.56C39.0626 9.56 38.1826 9.88 37.4626 10.52C36.7626 11.14 36.3326 12.01 36.1726 13.13H44.0626ZM55.6782 8.81C56.2182 8.01 56.9582 7.36 57.8982 6.86C58.8582 6.36 59.9482 6.11 61.1682 6.11C62.5882 6.11 63.8682 6.46 65.0082 7.16C66.1682 7.86 67.0782 8.86 67.7382 10.16C68.4182 11.44 68.7582 12.93 68.7582 14.63C68.7582 16.33 68.4182 17.84 67.7382 19.16C67.0782 20.46 66.1682 21.47 65.0082 22.19C63.8682 22.91 62.5882 23.27 61.1682 23.27C59.9282 23.27 58.8382 23.03 57.8982 22.55C56.9782 22.05 56.2382 21.41 55.6782 20.63V23H51.4782V0.799999H55.6782V8.81ZM64.4682 14.63C64.4682 13.63 64.2582 12.77 63.8382 12.05C63.4382 11.31 62.8982 10.75 62.2182 10.37C61.5582 9.99 60.8382 9.8 60.0582 9.8C59.2982 9.8 58.5782 10 57.8982 10.4C57.2382 10.78 56.6982 11.34 56.2782 12.08C55.8782 12.82 55.6782 13.69 55.6782 14.69C55.6782 15.69 55.8782 16.56 56.2782 17.3C56.6982 18.04 57.2382 18.61 57.8982 19.01C58.5782 19.39 59.2982 19.58 60.0582 19.58C60.8382 19.58 61.5582 19.38 62.2182 18.98C62.8982 18.58 63.4382 18.01 63.8382 17.27C64.2582 16.53 64.4682 15.65 64.4682 14.63ZM86.2787 2.06C88.4787 2.06 90.4087 2.49 92.0687 3.35C93.7487 4.21 95.0387 5.44 95.9387 7.04C96.8587 8.62 97.3187 10.46 97.3187 12.56C97.3187 14.66 96.8587 16.5 95.9387 18.08C95.0387 19.64 93.7487 20.85 92.0687 21.71C90.4087 22.57 88.4787 23 86.2787 23H78.9587V2.06H86.2787ZM86.1287 19.43C88.3287 19.43 90.0287 18.83 91.2287 17.63C92.4287 16.43 93.0287 14.74 93.0287 12.56C93.0287 10.38 92.4287 8.68 91.2287 7.46C90.0287 6.22 88.3287 5.6 86.1287 5.6H83.1587V19.43H86.1287ZM115.913 14.33C115.913 14.93 115.873 15.47 115.793 15.95H103.643C103.743 17.15 104.163 18.09 104.903 18.77C105.643 19.45 106.553 19.79 107.633 19.79C109.193 19.79 110.303 19.12 110.963 17.78H115.493C115.013 19.38 114.093 20.7 112.733 21.74C111.373 22.76 109.703 23.27 107.723 23.27C106.123 23.27 104.683 22.92 103.403 22.22C102.143 21.5 101.153 20.49 100.433 19.19C99.7326 17.89 99.3826 16.39 99.3826 14.69C99.3826 12.97 99.7326 11.46 100.433 10.16C101.133 8.86 102.113 7.86 103.373 7.16C104.633 6.46 106.083 6.11 107.723 6.11C109.303 6.11 110.713 6.45 111.953 7.13C113.213 7.81 114.183 8.78 114.863 10.04C115.563 11.28 115.913 12.71 115.913 14.33ZM111.563 13.13C111.543 12.05 111.153 11.19 110.393 10.55C109.633 9.89 108.703 9.56 107.603 9.56C106.563 9.56 105.683 9.88 104.963 10.52C104.263 11.14 103.833 12.01 103.673 13.13H111.563ZM125.908 19.13L130.108 6.38H134.578L128.428 23H123.328L117.208 6.38H121.708L125.908 19.13ZM152.387 14.33C152.387 14.93 152.347 15.47 152.267 15.95H140.117C140.217 17.15 140.637 18.09 141.377 18.77C142.117 19.45 143.027 19.79 144.107 19.79C145.667 19.79 146.777 19.12 147.437 17.78H151.967C151.487 19.38 150.567 20.7 149.207 21.74C147.847 22.76 146.177 23.27 144.197 23.27C142.597 23.27 141.157 22.92 139.877 22.22C138.617 21.5 137.627 20.49 136.907 19.19C136.207 17.89 135.857 16.39 135.857 14.69C135.857 12.97 136.207 11.46 136.907 10.16C137.607 8.86 138.587 7.86 139.847 7.16C141.107 6.46 142.557 6.11 144.197 6.11C145.777 6.11 147.187 6.45 148.427 7.13C149.687 7.81 150.657 8.78 151.337 10.04C152.037 11.28 152.387 12.71 152.387 14.33ZM148.037 13.13C148.017 12.05 147.627 11.19 146.867 10.55C146.107 9.89 145.177 9.56 144.077 9.56C143.037 9.56 142.157 9.88 141.437 10.52C140.737 11.14 140.307 12.01 140.147 13.13H148.037ZM159.653 0.799999V23H155.453V0.799999H159.653ZM171.182 23.27C169.582 23.27 168.142 22.92 166.862 22.22C165.582 21.5 164.572 20.49 163.832 19.19C163.112 17.89 162.752 16.39 162.752 14.69C162.752 12.99 163.122 11.49 163.862 10.19C164.622 8.89 165.652 7.89 166.952 7.19C168.252 6.47 169.702 6.11 171.302 6.11C172.902 6.11 174.352 6.47 175.652 7.19C176.952 7.89 177.972 8.89 178.712 10.19C179.472 11.49 179.852 12.99 179.852 14.69C179.852 16.39 179.462 17.89 178.682 19.19C177.922 20.49 176.882 21.5 175.562 22.22C174.262 22.92 172.802 23.27 171.182 23.27ZM171.182 19.61C171.942 19.61 172.652 19.43 173.312 19.07C173.992 18.69 174.532 18.13 174.932 17.39C175.332 16.65 175.532 15.75 175.532 14.69C175.532 13.11 175.112 11.9 174.272 11.06C173.452 10.2 172.442 9.77 171.242 9.77C170.042 9.77 169.032 10.2 168.212 11.06C167.412 11.9 167.012 13.11 167.012 14.69C167.012 16.27 167.402 17.49 168.182 18.35C168.982 19.19 169.982 19.61 171.182 19.61ZM187.133 8.78C187.673 8.02 188.413 7.39 189.353 6.89C190.313 6.37 191.403 6.11 192.623 6.11C194.043 6.11 195.323 6.46 196.463 7.16C197.623 7.86 198.533 8.86 199.193 10.16C199.873 11.44 200.213 12.93 200.213 14.63C200.213 16.33 199.873 17.84 199.193 19.16C198.533 20.46 197.623 21.47 196.463 22.19C195.323 22.91 194.043 23.27 192.623 23.27C191.403 23.27 190.323 23.02 189.383 22.52C188.463 22.02 187.713 21.39 187.133 20.63V30.92H182.933V6.38H187.133V8.78ZM195.923 14.63C195.923 13.63 195.713 12.77 195.293 12.05C194.893 11.31 194.353 10.75 193.673 10.37C193.013 9.99 192.293 9.8 191.513 9.8C190.753 9.8 190.033 10 189.353 10.4C188.693 10.78 188.153 11.34 187.733 12.08C187.333 12.82 187.133 13.69 187.133 14.69C187.133 15.69 187.333 16.56 187.733 17.3C188.153 18.04 188.693 18.61 189.353 19.01C190.033 19.39 190.753 19.58 191.513 19.58C192.293 19.58 193.013 19.38 193.673 18.98C194.353 18.58 194.893 18.01 195.293 17.27C195.713 16.53 195.923 15.65 195.923 14.63ZM218.715 14.33C218.715 14.93 218.675 15.47 218.595 15.95H206.445C206.545 17.15 206.965 18.09 207.705 18.77C208.445 19.45 209.355 19.79 210.435 19.79C211.995 19.79 213.105 19.12 213.765 17.78H218.295C217.815 19.38 216.895 20.7 215.535 21.74C214.175 22.76 212.505 23.27 210.525 23.27C208.925 23.27 207.485 22.92 206.205 22.22C204.945 21.5 203.955 20.49 203.235 19.19C202.535 17.89 202.185 16.39 202.185 14.69C202.185 12.97 202.535 11.46 203.235 10.16C203.935 8.86 204.915 7.86 206.175 7.16C207.435 6.46 208.885 6.11 210.525 6.11C212.105 6.11 213.515 6.45 214.755 7.13C216.015 7.81 216.985 8.78 217.665 10.04C218.365 11.28 218.715 12.71 218.715 14.33ZM214.365 13.13C214.345 12.05 213.955 11.19 213.195 10.55C212.435 9.89 211.505 9.56 210.405 9.56C209.365 9.56 208.485 9.88 207.765 10.52C207.065 11.14 206.635 12.01 206.475 13.13H214.365ZM225.981 8.96C226.521 8.08 227.221 7.39 228.081 6.89C228.961 6.39 229.961 6.14 231.081 6.14V10.55H229.971C228.651 10.55 227.651 10.86 226.971 11.48C226.311 12.1 225.981 13.18 225.981 14.72V23H221.781V6.38H225.981V8.96Z" fill="white"/>
<path d="M28.4615 45.93V48.348H20.7915V53.678H26.7715V56.096H20.7915V64H17.8275V45.93H28.4615ZM35.6023 51.754C36.0357 51.026 36.6077 50.4627 37.3183 50.064C38.0463 49.648 38.9043 49.44 39.8923 49.44V52.508H39.1383C37.977 52.508 37.093 52.8027 36.4863 53.392C35.897 53.9813 35.6023 55.004 35.6023 56.46V64H32.6383V49.674H35.6023V51.754ZM50.2608 64.234C48.9088 64.234 47.6868 63.9307 46.5948 63.324C45.5028 62.7 44.6448 61.8333 44.0208 60.724C43.3968 59.5973 43.0848 58.2973 43.0848 56.824C43.0848 55.368 43.4055 54.0767 44.0468 52.95C44.6882 51.8233 45.5635 50.9567 46.6728 50.35C47.7822 49.7433 49.0215 49.44 50.3908 49.44C51.7602 49.44 52.9995 49.7433 54.1088 50.35C55.2182 50.9567 56.0935 51.8233 56.7348 52.95C57.3762 54.0767 57.6968 55.368 57.6968 56.824C57.6968 58.28 57.3675 59.5713 56.7088 60.698C56.0502 61.8247 55.1488 62.7 54.0048 63.324C52.8782 63.9307 51.6302 64.234 50.2608 64.234ZM50.2608 61.66C51.0235 61.66 51.7342 61.478 52.3928 61.114C53.0688 60.75 53.6148 60.204 54.0308 59.476C54.4468 58.748 54.6548 57.864 54.6548 56.824C54.6548 55.784 54.4555 54.9087 54.0568 54.198C53.6582 53.47 53.1295 52.924 52.4708 52.56C51.8122 52.196 51.1015 52.014 50.3388 52.014C49.5762 52.014 48.8655 52.196 48.2068 52.56C47.5655 52.924 47.0542 53.47 46.6728 54.198C46.2915 54.9087 46.1008 55.784 46.1008 56.824C46.1008 58.3667 46.4908 59.5627 47.2708 60.412C48.0682 61.244 49.0648 61.66 50.2608 61.66ZM79.3989 49.44C80.5256 49.44 81.5309 49.674 82.4149 50.142C83.3162 50.61 84.0182 51.3033 84.5209 52.222C85.0409 53.1407 85.3009 54.25 85.3009 55.55V64H82.3629V55.992C82.3629 54.7093 82.0422 53.73 81.4009 53.054C80.7596 52.3607 79.8842 52.014 78.7749 52.014C77.6656 52.014 76.7816 52.3607 76.1229 53.054C75.4816 53.73 75.1609 54.7093 75.1609 55.992V64H72.2229V55.992C72.2229 54.7093 71.9022 53.73 71.2609 53.054C70.6196 52.3607 69.7442 52.014 68.6349 52.014C67.5256 52.014 66.6416 52.3607 65.9829 53.054C65.3416 53.73 65.0209 54.7093 65.0209 55.992V64H62.0569V49.674H65.0209V51.312C65.5062 50.7227 66.1216 50.2633 66.8669 49.934C67.6122 49.6047 68.4096 49.44 69.2589 49.44C70.4029 49.44 71.4256 49.6827 72.3269 50.168C73.2282 50.6533 73.9216 51.3553 74.4069 52.274C74.8402 51.4073 75.5162 50.7227 76.4349 50.22C77.3536 49.7 78.3416 49.44 79.3989 49.44Z" fill="#C0C0C0"/>
<path d="M113.948 50.672C113.948 51.8107 113.687 52.856 113.164 53.808C112.641 54.7413 111.839 55.4973 110.756 56.076C109.673 56.6547 108.329 56.944 106.724 56.944H103.756V64H98.968V44.344H106.724C108.292 44.344 109.617 44.6147 110.7 45.156C111.783 45.6973 112.595 46.444 113.136 47.396C113.677 48.348 113.948 49.44 113.948 50.672ZM106.36 53.136C107.275 53.136 107.956 52.9213 108.404 52.492C108.852 52.0627 109.076 51.456 109.076 50.672C109.076 49.888 108.852 49.2813 108.404 48.852C107.956 48.4227 107.275 48.208 106.36 48.208H103.756V53.136H106.36ZM129.377 64L122.769 55.32V64H117.981V44.344H122.769V52.968L129.321 44.344H134.949L127.333 53.976L135.229 64H129.377Z" fill="#FF2B51"/>
</g>
<defs>
<clipPath id="clip0_122_6">
<rect width="232" height="65" fill="white"/>
</clipPath>
</defs>
</svg>
